<svg id="_0259_timeline" xmlns="http://www.w3.org/2000/svg" xmlns:xlink="http://www.w3.org/1999/xlink" viewBox="0 0 500 500" data-imageid="timeline-50" imageName="Timeline" class="illustrations_image" style="width: 192px;"><defs><style>.cls-1_timeline-50{fill:url(#linear-gradient);}.cls-1_timeline-50,.cls-2_timeline-50,.cls-3_timeline-50,.cls-4_timeline-50,.cls-5_timeline-50,.cls-6_timeline-50,.cls-7_timeline-50{stroke-width:0px;}.cls-2_timeline-50{fill:url(#linear-gradient-4-timeline-50);}.cls-3_timeline-50{fill:url(#linear-gradient-2-timeline-50);}.cls-4_timeline-50{fill:url(#linear-gradient-3-timeline-50);}.cls-5_timeline-50{isolation:isolate;opacity:.24;}.cls-5_timeline-50,.cls-7_timeline-50{fill:#68e1fd;}.cls-6_timeline-50{fill:#fff;}</style><linearGradient id="linear-gradient-timeline-50" x1="605.43" y1="1788.83" x2="631.63" y2="1431.14" gradientTransform="translate(-516.59 1880.64) scale(1 -1)" gradientUnits="userSpaceOnUse"><stop offset="0" stop-color="#231f20" stop-opacity="0"/><stop offset="1" stop-color="#231f20"/></linearGradient><linearGradient id="linear-gradient-2-timeline-50" x1="769.77" y1="1799.05" x2="750.41" y2="1396.94" xlink:href="#linear-gradient-timeline-50"/><linearGradient id="linear-gradient-3-timeline-50" x1="907.7" y1="1714.6" x2="923.94" y2="1303.66" gradientTransform="translate(-516.59 1880.64) scale(1 -1)" gradientUnits="userSpaceOnUse"><stop offset="0" stop-color="#fff" stop-opacity="0"/><stop offset=".13" stop-color="#fff" stop-opacity=".23"/><stop offset=".23" stop-color="#fff" stop-opacity=".41"/><stop offset=".35" stop-color="#fff" stop-opacity=".59"/><stop offset=".48" stop-color="#fff" stop-opacity=".74"/><stop offset=".6" stop-color="#fff" stop-opacity=".85"/><stop offset=".72" stop-color="#fff" stop-opacity=".93"/><stop offset=".84" stop-color="#fff" stop-opacity=".98"/><stop offset=".95" stop-color="#fff"/></linearGradient><linearGradient id="linear-gradient-4-timeline-50" x1="692.23" y1="1873.76" x2="687.11" y2="1489.31" xlink:href="#linear-gradient-timeline-50"/></defs><g id="background_timeline-50"><path class="cls-5_timeline-50 targetColor" d="M450.09,357.19c-26.71,37.15-76.23,50.52-121.95,50.73-45.73.21-91.12-10.03-136.81-8.8-40.33,1.1-80.8,11.16-120.56,4.46-39.76-6.7-80.13-38.38-77.22-78.55.85-11.99,5.47-23.33,9.98-34.48,6.92-16.96,17.05-35.28,23.76-53.61,2.28-6.11,4.08-12.39,5.39-18.78.16-.73.27-1.46.4-2.19,3.76-22.36-1.33-45.21,3.79-68.08,9.5-42.24,34.83-82.56,76.83-98.31,36.23-13.5,76.4-6.56,115-9.01,37.11-2.34,73.31-13.48,110.51-14.23s78.22,11.95,96.35,44.39c12.41,22.18,11.8,48.94,14.47,74.22,3.82,36.23,14.96,71.3,19.54,107.45,4.59,36.14,1.74,75.25-19.5,104.79Z" style="fill: rgb(104, 225, 253);"/><path class="cls-7_timeline-50 targetColor" d="M62.43,218.14v18.78H27.34c2.28-6.11,4.08-12.39,5.39-18.78h29.69Z" style="fill: rgb(104, 225, 253);"/></g><g id="icon_5_timeline-50"><path class="cls-7_timeline-50 targetColor" d="M98.62,236.92v43.63h.13c17.22,0,31.18,13.95,31.19,31.17,0,17.22-13.95,31.18-31.17,31.19-17.22,0-31.18-13.95-31.19-31.17,0-15.63,11.57-28.85,27.07-30.91v-43.9h-32.61v-18.78h73.52v18.78h-36.93Z" style="fill: rgb(104, 225, 253);"/><path class="cls-1_timeline-50" d="M98.62,236.92v43.63h.13c17.22,0,31.18,13.95,31.19,31.17,0,17.22-13.95,31.18-31.17,31.19-17.22,0-31.18-13.95-31.19-31.17,0-15.63,11.57-28.85,27.07-30.91v-43.9h-32.61v-18.78h73.52v18.78h-36.93Z"/><path class="cls-6_timeline-50" d="M95.69,295.05c-6.27,0-11.35,5.08-11.35,11.35,0,6.27,5.08,11.35,11.35,11.35s11.35-5.08,11.35-11.35h0c-.01-6.27-5.09-11.34-11.35-11.35ZM95.81,316.4c-5.52,0-9.99-4.47-9.99-9.99s4.47-9.99,9.99-9.99c5.52,0,9.99,4.47,9.99,9.99,0,5.52-4.48,9.99-9.99,9.99Z"/><rect class="cls-6_timeline-50" x="104.27" y="313.18" width="3.4" height="12.15" transform="translate(-175.19 134.59) rotate(-38.34)"/><circle class="cls-5_timeline-50 targetColor" cx="98.76" cy="312.07" r="26.6" style="fill: rgb(104, 225, 253);"/></g><g id="icon_4_timeline-50"><path class="cls-7_timeline-50 targetColor" d="M243.88,236.92v43.63h.12c17.2,0,31.13,13.96,31.12,31.15,0,17.2-13.96,31.13-31.15,31.12-17.2,0-31.13-13.96-31.12-31.15,0-15.6,11.56-28.79,27.03-30.85v-43.9h-30.46v-18.78h73.48v18.78h-39.01Z" style="fill: rgb(104, 225, 253);"/><path class="cls-3_timeline-50" d="M243.88,236.92v43.63h.12c17.2,0,31.13,13.96,31.12,31.15,0,17.2-13.96,31.13-31.15,31.12-17.2,0-31.13-13.96-31.12-31.15,0-15.6,11.56-28.79,27.03-30.85v-43.9h-30.46v-18.78h73.48v18.78h-39.01Z"/><circle class="cls-5_timeline-50 targetColor" cx="243.99" cy="312.07" r="26.6" transform="translate(-103.13 502.92) rotate(-80.78)" style="fill: rgb(104, 225, 253);"/><path class="cls-6_timeline-50" d="M254.31,324.25h-21.99v-24h14.1l7.93,6.28-.03,17.72ZM233.8,322.73h19v-15.5l-6.94-5.47h-12.05v20.97Z"/><path class="cls-6_timeline-50" d="M253.94,307.43h-8.38v-6.71l.73.61,6.96,5.5.68.61ZM246.25,306.74h5.8l-5.81-4.57v4.57Z"/></g><g id="icon_3_timeline-50"><path class="cls-7_timeline-50 targetColor" d="M391.68,236.92v43.63h.14c17.2,0,31.13,13.96,31.12,31.15,0,17.2-13.96,31.13-31.15,31.12-17.2,0-31.13-13.96-31.12-31.15,0-15.6,11.56-28.79,27.03-30.85v-43.9h-30.91v-18.78h73.52v18.78h-38.63Z" style="fill: rgb(104, 225, 253);"/><path class="cls-4_timeline-50" d="M391.68,236.92v43.63h.14c17.2,0,31.13,13.96,31.12,31.15,0,17.2-13.96,31.13-31.15,31.12-17.2,0-31.13-13.96-31.12-31.15,0-15.6,11.56-28.79,27.03-30.85v-43.9h-30.91v-18.78h73.52v18.78h-38.63Z"/><circle class="cls-5_timeline-50 targetColor" cx="390.94" cy="311.49" r="26.6" style="fill: rgb(104, 225, 253);"/><path class="cls-6_timeline-50" d="M400.65,292.75h-15.71c-2.26,0-4.1,1.83-4.11,4.1v28.28c0,2.26,1.83,4.1,4.1,4.1h15.72c2.26.02,4.11-1.8,4.13-4.06,0-.01,0-.02,0-.03v-28.28c0-2.27-1.85-4.1-4.12-4.1,0,0,0,0-.01,0ZM392.77,327.19c-.99.01-1.81-.79-1.82-1.78,0,0,0,0,0-.01,0-1.01.82-1.82,1.82-1.82s1.82.82,1.82,1.82c0,.99-.82,1.8-1.81,1.79,0,0,0,0-.01,0h0ZM402.48,321.95h-19.42v-24.8h19.42v24.8Z"/></g><g id="icon_2_timeline-50"><path class="cls-7_timeline-50 targetColor" d="M209.46,218.14v18.78h-73.52v-18.78h38.14v-47.61h-.12c-17.2,0-31.13-13.96-31.12-31.15,0-17.2,13.96-31.13,31.15-31.12,17.2,0,31.13,13.96,31.12,31.15,0,15.6-11.56,28.79-27.03,30.85v47.88h31.37Z" style="fill: rgb(104, 225, 253);"/><path class="cls-2_timeline-50" d="M209.46,218.14v18.78h-73.52v-18.78h38.14v-47.61h-.12c-17.2,0-31.13-13.96-31.12-31.15,0-17.2,13.96-31.13,31.15-31.12,17.2,0,31.13,13.96,31.12,31.15,0,15.6-11.56,28.79-27.03,30.85v47.88h31.37Z"/><circle class="cls-5_timeline-50 targetColor" cx="173.94" cy="139.49" r="26.6" style="fill: rgb(104, 225, 253);"/><path class="cls-6_timeline-50" d="M174.29,127.39c6.94.26,12.34,6.1,12.08,13.04-.24,6.3-5.12,11.45-11.4,12.03-6.91.64-13.03-4.44-13.67-11.35-.64-6.91,4.44-13.03,11.35-13.67.55-.05,1.09-.07,1.64-.04ZM183.03,139.88c-.05-4.81-3.99-8.67-8.8-8.63-4.79.19-8.52,4.22-8.33,9,.18,4.55,3.85,8.19,8.4,8.33,4.81,0,8.71-3.9,8.72-8.7Z"/><path class="cls-6_timeline-50" d="M180.42,127.49c.78-1.27,2.23-1.96,3.71-1.77,1.74.17,3.15,1.48,3.45,3.2.25,1.41-.43,3.22-1.45,3.71-1.39-2.21-3.37-3.98-5.71-5.14Z"/><path class="cls-6_timeline-50" d="M162.45,132.58c-1.21-.96-1.72-2.56-1.29-4.04.41-1.42,1.58-2.49,3.04-2.75,1.53-.28,3.09.37,3.97,1.65-2.34,1.16-4.32,2.94-5.72,5.14Z"/><path class="cls-6_timeline-50" d="M179.14,134.37q.67.65.05,1.26c-1.11,1.11-2.22,2.22-3.34,3.32-.2.16-.28.43-.21.68.2.69-.19,1.41-.88,1.62-.67.23-1.41-.08-1.72-.72-.11-.29-.34-.53-.64-.63-1.14-.5-2.26-1.05-3.39-1.52-.3-.14-.39-.27-.25-.59.56-1.24.39-1.05,1.46-.6s1.96.9,2.94,1.32c.24.07.49.09.74.07.13,0,.27-.07.4,0,.48.13.78-.13,1.05-.44,1.12-1.14,2.25-2.26,3.38-3.39l.41-.39Z"/></g><g id="icon_1_timeline-50"><path class="cls-7_timeline-50 targetColor" d="M356.84,218.14v18.78h-73.52v-18.78h36.02v-47.61h-.13c-17.23,0-31.2-13.95-31.21-31.17,0-17.23,13.95-31.2,31.17-31.21,17.23,0,31.2,13.95,31.21,31.17,0,15.64-11.57,28.87-27.08,30.93v47.88h33.54Z" style="fill: rgb(104, 225, 253);"/><circle class="cls-5_timeline-50 targetColor" cx="319.17" cy="138.92" r="26.6" style="fill: rgb(104, 225, 253);"/><path class="cls-6_timeline-50" d="M309.88,150.15c-1.85,1.36-3.52,3.79-3.14,6.06,9.05-.45,17.64.07,25.5,0-.13-2.27-.98-4.43-2.43-6.18-.75-.69-1.61-1.25-2.55-1.65-1.88-1.02-3.88-1.79-5.95-2.31-4.25-.93-8.14,1.65-11.44,4.08Z"/><path class="cls-6_timeline-50" d="M325.77,136.32c.08.67-.14,1.34-.61,1.83-.1.13-.24.22-.39.28-.79.25-.83-1.35-.61-1.81.22-.46,1.49-1.34,1.6-.3Z"/><path class="cls-6_timeline-50" d="M311.65,135.42c-.08.66.13,1.32.57,1.82.11.13.24.22.4.28.79.26.83-1.35.6-1.81s-1.45-1.33-1.56-.29Z"/><path class="cls-6_timeline-50" d="M321.64,140.82s0,5.24,1.25,6.36c1.25,1.12-4.8,6.28-7.33.51,1-2.08,1.34-4.42.96-6.69-.47-4.19,5.12-.18,5.12-.18Z"/><path class="cls-6_timeline-50" d="M321.85,142.06v1.15s-3.04,4.38-4.28,2.9c-1.25-1.48-.88-1.8-.88-1.8l-.14-3.32,5.3,1.07Z"/><path class="cls-6_timeline-50" d="M324.58,133.3s.88,8.02-3.41,9.61-6.84-.69-8.01-4.57c-1.17-3.88.62-11.69,5.18-10.92,4.57.76,6.24,5.88,6.24,5.88Z"/><path class="cls-6_timeline-50" d="M325.27,136c.2-.28.32-.6.37-.93.57-3.06-.54-6.2-2.9-8.23-.47-.42-1.01-.74-1.6-.95-.6-.17-1.22-.23-1.83-.19-1.94.07-3.8.74-5.33,1.93-1.53,1.21-2.48,3-2.63,4.94-.05.57.04,1.15.26,1.68.24.53.71.92,1.28,1.05.99.17,1.27-.74,2.09-1.35,1.2-.92,1.59-2.28,4.34-2.09,4.43.41,4.75,5.62,5.96,4.16Z"/><path class="cls-6_timeline-50" d="M312.45,136c-.06-.05-.1-.11-.13-.18,0-.08,0-.15,0-.23,0-.08-.05-.15-.1-.2-.07-.04-.14-.04-.21,0-.07.02-.12.08-.14.15,0,.07,0,.13,0,.2-.03.27.01.54.12.79.1.17.23.31.38.44.05.06.12.1.2.12.05.01.1.01.15,0h0s0-.04,0-.06c.03-.18.03-.36,0-.54-.03-.18-.12-.35-.26-.47Z"/><path class="cls-6_timeline-50" d="M324.88,136.86c.05-.05.09-.11.13-.17v-.23c0-.08.05-.15.1-.2.06-.04.15-.04.21,0,.07.03.12.09.14.16.01.07.01.13,0,.2.03.26,0,.53-.1.78-.1.17-.23.32-.38.44-.05.06-.12.11-.2.12-.05.01-.1.01-.15,0h0s0-.04,0-.05c-.04-.18-.04-.37,0-.56.02-.19.11-.36.25-.48Z"/></g><g id="text_timeline-50"><rect class="cls-7_timeline-50 targetColor" x="362.06" y="131.28" width="62.09" height="3.41" style="fill: rgb(104, 225, 253);"/><rect class="cls-7_timeline-50 targetColor" x="362.06" y="137.69" width="30.3" height="3.41" style="fill: rgb(104, 225, 253);"/><rect class="cls-7_timeline-50 targetColor" x="393.8" y="137.69" width="30.3" height="3.41" style="fill: rgb(104, 225, 253);"/><rect class="cls-7_timeline-50 targetColor" x="362.06" y="152.64" width="62.09" height="3.41" style="fill: rgb(104, 225, 253);"/><rect class="cls-7_timeline-50 targetColor" x="285.73" y="248.89" width="62.09" height="3.41" style="fill: rgb(104, 225, 253);"/><rect class="cls-7_timeline-50 targetColor" x="285.73" y="255.3" width="30.3" height="3.41" style="fill: rgb(104, 225, 253);"/><rect class="cls-7_timeline-50 targetColor" x="317.48" y="255.3" width="30.3" height="3.41" style="fill: rgb(104, 225, 253);"/><rect class="cls-7_timeline-50 targetColor" x="285.73" y="270.25" width="62.09" height="3.41" style="fill: rgb(104, 225, 253);"/><rect class="cls-7_timeline-50 targetColor" x="285.73" y="276.66" width="30.3" height="3.41" style="fill: rgb(104, 225, 253);"/><rect class="cls-7_timeline-50 targetColor" x="285.73" y="263.42" width="15.59" height="3.41" style="fill: rgb(104, 225, 253);"/><rect class="cls-7_timeline-50 targetColor" x="305.63" y="263.42" width="18.98" height="3.41" style="fill: rgb(104, 225, 253);"/><rect class="cls-7_timeline-50 targetColor" x="328.54" y="263.42" width="18.98" height="3.41" style="fill: rgb(104, 225, 253);"/><rect class="cls-7_timeline-50 targetColor" x="362.06" y="159.04" width="30.3" height="3.41" style="fill: rgb(104, 225, 253);"/><rect class="cls-7_timeline-50 targetColor" x="362.06" y="145.8" width="15.59" height="3.41" style="fill: rgb(104, 225, 253);"/><rect class="cls-7_timeline-50 targetColor" x="381.95" y="145.8" width="18.98" height="3.41" style="fill: rgb(104, 225, 253);"/><rect class="cls-7_timeline-50 targetColor" x="404.87" y="145.8" width="18.98" height="3.41" style="fill: rgb(104, 225, 253);"/><rect class="cls-7_timeline-50 targetColor" x="214.72" y="131.28" width="62.09" height="3.41" style="fill: rgb(104, 225, 253);"/><rect class="cls-7_timeline-50 targetColor" x="214.72" y="137.69" width="30.3" height="3.41" style="fill: rgb(104, 225, 253);"/><rect class="cls-7_timeline-50 targetColor" x="246.48" y="137.69" width="30.3" height="3.41" style="fill: rgb(104, 225, 253);"/><rect class="cls-7_timeline-50 targetColor" x="214.72" y="152.64" width="62.09" height="3.41" style="fill: rgb(104, 225, 253);"/><rect class="cls-7_timeline-50 targetColor" x="214.72" y="159.04" width="30.3" height="3.41" style="fill: rgb(104, 225, 253);"/><rect class="cls-7_timeline-50 targetColor" x="246.48" y="166.03" width="30.3" height="3.41" style="fill: rgb(104, 225, 253);"/><rect class="cls-7_timeline-50 targetColor" x="214.72" y="145.8" width="15.59" height="3.41" style="fill: rgb(104, 225, 253);"/><rect class="cls-7_timeline-50 targetColor" x="234.62" y="145.8" width="18.98" height="3.41" style="fill: rgb(104, 225, 253);"/><rect class="cls-7_timeline-50 targetColor" x="257.54" y="145.8" width="18.98" height="3.41" style="fill: rgb(104, 225, 253);"/><rect class="cls-7_timeline-50 targetColor" x="63.32" y="131.28" width="62.09" height="3.41" style="fill: rgb(104, 225, 253);"/><rect class="cls-7_timeline-50 targetColor" x="63.32" y="137.69" width="30.3" height="3.41" style="fill: rgb(104, 225, 253);"/><rect class="cls-7_timeline-50 targetColor" x="95.07" y="137.69" width="30.3" height="3.41" style="fill: rgb(104, 225, 253);"/><rect class="cls-7_timeline-50 targetColor" x="63.32" y="145.8" width="15.59" height="3.41" style="fill: rgb(104, 225, 253);"/><rect class="cls-7_timeline-50 targetColor" x="83.21" y="145.8" width="18.98" height="3.41" style="fill: rgb(104, 225, 253);"/><rect class="cls-7_timeline-50 targetColor" x="138.4" y="248.89" width="62.09" height="3.41" style="fill: rgb(104, 225, 253);"/><rect class="cls-7_timeline-50 targetColor" x="138.4" y="255.3" width="30.3" height="3.41" style="fill: rgb(104, 225, 253);"/><rect class="cls-7_timeline-50 targetColor" x="170.16" y="255.3" width="30.3" height="3.41" style="fill: rgb(104, 225, 253);"/><rect class="cls-7_timeline-50 targetColor" x="138.4" y="270.25" width="62.09" height="3.41" style="fill: rgb(104, 225, 253);"/><rect class="cls-7_timeline-50 targetColor" x="138.4" y="276.66" width="30.3" height="3.41" style="fill: rgb(104, 225, 253);"/><rect class="cls-7_timeline-50 targetColor" x="170.16" y="283.63" width="30.3" height="3.41" style="fill: rgb(104, 225, 253);"/><rect class="cls-7_timeline-50 targetColor" x="138.4" y="263.42" width="15.59" height="3.41" style="fill: rgb(104, 225, 253);"/><rect class="cls-7_timeline-50 targetColor" x="158.29" y="263.42" width="18.98" height="3.41" style="fill: rgb(104, 225, 253);"/><rect class="cls-7_timeline-50 targetColor" x="181.22" y="263.42" width="18.98" height="3.41" style="fill: rgb(104, 225, 253);"/></g></svg>